<svg width="26" height="26" viewBox="0 0 26 26" fill="none" xmlns="http://www.w3.org/2000/svg">
<path fill-rule="evenodd" clip-rule="evenodd" d="M21.4933 19.7092C21.4933 23.2799 16.5966 23.6926 12.9143 23.6926L12.6508 23.6924C10.3048 23.6867 4.33325 23.5386 4.33325 19.6876C4.33325 16.1898 9.03313 15.7223 12.6874 15.7047L13.1778 15.7044C15.5237 15.7101 21.4933 15.8582 21.4933 19.7092ZM12.9143 17.3292C8.29825 17.3292 5.95825 18.1221 5.95825 19.6876C5.95825 21.2671 8.29825 22.0676 12.9143 22.0676C17.5293 22.0676 19.8683 21.2746 19.8683 19.7092C19.8683 18.1297 17.5293 17.3292 12.9143 17.3292ZM12.9143 2.16638C16.0863 2.16638 18.6658 4.74688 18.6658 7.91888C18.6658 11.0909 16.0863 13.6703 12.9143 13.6703H12.8797C9.71417 13.6605 7.14992 11.079 7.16072 7.91563C7.16072 4.74688 9.74125 2.16638 12.9143 2.16638ZM12.9143 3.71338C10.5949 3.71338 8.70773 5.59947 8.70773 7.91888C8.70017 10.2307 10.5733 12.1157 12.8829 12.1244L12.9143 12.8979V12.1244C15.2327 12.1244 17.1188 10.2372 17.1188 7.91888C17.1188 5.59947 15.2327 3.71338 12.9143 3.71338Z" fill="black" style="fill:black;fill-opacity:1;"/>
</svg>
